<svg id="Capa_1" data-name="Capa 1" xmlns="http://www.w3.org/2000/svg" viewBox="0 0 160 160"><defs><style>.cls-1{fill:#d8e63b;}.cls-2{fill:#d3dde7;}</style></defs><path class="cls-1" d="M157.67,109.62c0,25.45-65.63,25.45-65.63,0v-58c0-9.66,9.06-15.87,18.58-15.88,9.19,0,18.81,4.2,21.11,18.23h1V37.39h25V79.9H127.09V58a2.26,2.26,0,0,0-1.92-2.22v64.51a2.26,2.26,0,0,0,1.92-2.22V81.83h30.58Z"/><path class="cls-1" d="M72.64,37.39H44.71a3.88,3.88,0,0,1,.7,2.23v4.86a5.52,5.52,0,0,1-1.64,3.92L23.87,68v59H72.64c12.13,0,16.86-9.68,16.86-20.27V57.67C89.5,47.07,84.77,37.39,72.64,37.39ZM45.41,70.3A8.83,8.83,0,0,1,38.62,79a8.06,8.06,0,0,1-5-.44,7.86,7.86,0,0,1-3-2.28,8.43,8.43,0,0,1,.7-11.18l14-14.26Zm11,49.82H54.44V44.28h1.92Z"/><path class="cls-2" d="M2.33,44.17V34.39a3.1,3.1,0,0,1,3.1-3.1h36a3.94,3.94,0,0,1,3.94,3.93v4.86A5.48,5.48,0,0,1,43.77,44L15.21,72.19a3.76,3.76,0,0,1-5.28,0l-6.4-6.41a3.51,3.51,0,0,1,.11-5.08L18.21,47.39,5.12,47A2.86,2.86,0,0,1,2.33,44.17Z"/><path class="cls-2" d="M45.41,46.44V65.9a8.85,8.85,0,0,1-6.79,8.7,8.13,8.13,0,0,1-5-.45,7.94,7.94,0,0,1-3-2.27,8.43,8.43,0,0,1,.7-11.18Z"/></svg>